<?xml version="1.0" encoding="UTF-8" standalone="no"?>
<!DOCTYPE svg PUBLIC "-//W3C//DTD SVG 1.1//EN"
 "http://www.w3.org/Graphics/SVG/1.1/DTD/svg11.dtd">
<!-- Generated by graphviz version 2.47.3 (20210619.1520)
 -->
<!-- Title: dependencies Pages: 1 -->
<svg width="969pt" height="247pt"
 viewBox="0.00 0.00 969.00 246.80" xmlns="http://www.w3.org/2000/svg" xmlns:xlink="http://www.w3.org/1999/xlink">
<g id="graph0" class="graph" transform="scale(1 1) rotate(0) translate(4 242.8)">
<title>dependencies</title>
<polygon fill="white" stroke="transparent" points="-4,4 -4,-242.8 965,-242.8 965,4 -4,4"/>
<text text-anchor="middle" x="480.5" y="-8.2" font-family="sans-serif" font-size="14.00">dependencies</text>
<g id="clust1" class="cluster">
<title>cluster_AppModule</title>
<polygon fill="none" stroke="black" stroke-dasharray="1,5" points="8,-32.8 8,-230.8 953,-230.8 953,-32.8 8,-32.8"/>
</g>
<g id="clust2" class="cluster">
<title>cluster_AppModule_declarations</title>
<polygon fill="none" stroke="black" points="301,-40.8 301,-92.8 945,-92.8 945,-40.8 301,-40.8"/>
</g>
<g id="clust9" class="cluster">
<title>cluster_AppModule_bootstrap</title>
<polygon fill="none" stroke="black" points="386,-170.8 386,-222.8 510,-222.8 510,-170.8 386,-170.8"/>
</g>
<g id="clust10" class="cluster">
<title>cluster_AppModule_providers</title>
<polygon fill="none" stroke="black" points="16,-40.8 16,-92.8 293,-92.8 293,-40.8 16,-40.8"/>
</g>
<!-- AppComponent -->
<g id="node1" class="node">
<title>AppComponent</title>
<polygon fill="#ffffb3" stroke="black" points="936.94,-84.8 831.06,-84.8 831.06,-48.8 936.94,-48.8 936.94,-84.8"/>
<text text-anchor="middle" x="884" y="-62.6" font-family="Times,serif" font-size="14.00">AppComponent</text>
</g>
<!-- AppModule -->
<g id="node5" class="node">
<title>AppModule</title>
<polygon fill="#8dd3c7" stroke="black" points="489.66,-149.8 486.66,-153.8 465.66,-153.8 462.66,-149.8 406.34,-149.8 406.34,-113.8 489.66,-113.8 489.66,-149.8"/>
<text text-anchor="middle" x="448" y="-127.6" font-family="Times,serif" font-size="14.00">AppModule</text>
</g>
<!-- AppComponent&#45;&gt;AppModule -->
<g id="edge1" class="edge">
<title>AppComponent&#45;&gt;AppModule</title>
<path fill="none" stroke="black" d="M884,-85.08C884,-106.12 884,-137.8 884,-137.8 884,-137.8 499.81,-137.8 499.81,-137.8"/>
<polygon fill="black" stroke="black" points="499.81,-134.3 489.81,-137.8 499.81,-141.3 499.81,-134.3"/>
</g>
<!-- CountryStatisticsComponent -->
<g id="node2" class="node">
<title>CountryStatisticsComponent</title>
<polygon fill="#ffffb3" stroke="black" points="812.77,-84.8 635.23,-84.8 635.23,-48.8 812.77,-48.8 812.77,-84.8"/>
<text text-anchor="middle" x="724" y="-62.6" font-family="Times,serif" font-size="14.00">CountryStatisticsComponent</text>
</g>
<!-- CountryStatisticsComponent&#45;&gt;AppModule -->
<g id="edge2" class="edge">
<title>CountryStatisticsComponent&#45;&gt;AppModule</title>
<path fill="none" stroke="black" d="M724,-84.82C724,-102.17 724,-125.8 724,-125.8 724,-125.8 499.92,-125.8 499.92,-125.8"/>
<polygon fill="black" stroke="black" points="499.92,-122.3 489.92,-125.8 499.92,-129.3 499.92,-122.3"/>
</g>
<!-- GlobalSummaryComponent -->
<g id="node3" class="node">
<title>GlobalSummaryComponent</title>
<polygon fill="#ffffb3" stroke="black" points="616.87,-84.8 443.13,-84.8 443.13,-48.8 616.87,-48.8 616.87,-84.8"/>
<text text-anchor="middle" x="530" y="-62.6" font-family="Times,serif" font-size="14.00">GlobalSummaryComponent</text>
</g>
<!-- GlobalSummaryComponent&#45;&gt;AppModule -->
<g id="edge3" class="edge">
<title>GlobalSummaryComponent&#45;&gt;AppModule</title>
<path fill="none" stroke="black" d="M466.45,-84.91C466.45,-84.91 466.45,-103.79 466.45,-103.79"/>
<polygon fill="black" stroke="black" points="462.95,-103.79 466.45,-113.79 469.95,-103.79 462.95,-103.79"/>
</g>
<!-- HomeComponent -->
<g id="node4" class="node">
<title>HomeComponent</title>
<polygon fill="#ffffb3" stroke="black" points="424.55,-84.8 309.45,-84.8 309.45,-48.8 424.55,-48.8 424.55,-84.8"/>
<text text-anchor="middle" x="367" y="-62.6" font-family="Times,serif" font-size="14.00">HomeComponent</text>
</g>
<!-- HomeComponent&#45;&gt;AppModule -->
<g id="edge4" class="edge">
<title>HomeComponent&#45;&gt;AppModule</title>
<path fill="none" stroke="black" d="M415.47,-84.91C415.47,-84.91 415.47,-103.79 415.47,-103.79"/>
<polygon fill="black" stroke="black" points="411.97,-103.79 415.47,-113.79 418.97,-103.79 411.97,-103.79"/>
</g>
<!-- AppComponent  -->
<g id="node6" class="node">
<title>AppComponent </title>
<polygon fill="#80b1d3" stroke="black" points="502.44,-214.8 393.56,-214.8 393.56,-178.8 502.44,-178.8 502.44,-214.8"/>
<text text-anchor="middle" x="448" y="-192.6" font-family="Times,serif" font-size="14.00">AppComponent </text>
</g>
<!-- AppModule&#45;&gt;AppComponent  -->
<g id="edge5" class="edge">
<title>AppModule&#45;&gt;AppComponent </title>
<path fill="none" stroke="black" stroke-dasharray="1,5" d="M448,-149.91C448,-149.91 448,-168.79 448,-168.79"/>
<polygon fill="black" stroke="black" points="444.5,-168.79 448,-178.79 451.5,-168.79 444.5,-168.79"/>
</g>
<!-- ApiService -->
<g id="node7" class="node">
<title>ApiService</title>
<ellipse fill="#fdb462" stroke="black" cx="231" cy="-66.8" rx="54.45" ry="18"/>
<text text-anchor="middle" x="231" y="-62.6" font-family="Times,serif" font-size="14.00">ApiService</text>
</g>
<!-- ApiService&#45;&gt;AppModule -->
<g id="edge6" class="edge">
<title>ApiService&#45;&gt;AppModule</title>
<path fill="none" stroke="black" d="M231,-84.82C231,-102.17 231,-125.8 231,-125.8 231,-125.8 396.16,-125.8 396.16,-125.8"/>
<polygon fill="black" stroke="black" points="396.16,-129.3 406.16,-125.8 396.16,-122.3 396.16,-129.3"/>
</g>
<!-- FacadeService -->
<g id="node8" class="node">
<title>FacadeService</title>
<ellipse fill="#fdb462" stroke="black" cx="91" cy="-66.8" rx="67.17" ry="18"/>
<text text-anchor="middle" x="91" y="-62.6" font-family="Times,serif" font-size="14.00">FacadeService</text>
</g>
<!-- FacadeService&#45;&gt;AppModule -->
<g id="edge7" class="edge">
<title>FacadeService&#45;&gt;AppModule</title>
<path fill="none" stroke="black" d="M91,-85.08C91,-106.12 91,-137.8 91,-137.8 91,-137.8 396,-137.8 396,-137.8"/>
<polygon fill="black" stroke="black" points="396,-141.3 406,-137.8 396,-134.3 396,-141.3"/>
</g>
</g>
</svg>
